<svg width="157" height="33" viewBox="0 0 157 33" fill="none" xmlns="http://www.w3.org/2000/svg">
<path d="M32.0405 15.8266C32.0405 15.1589 31.9692 14.499 31.8243 13.8469C31.8176 13.7728 31.817 13.6981 31.803 13.6251C31.3672 11.3258 30.4691 9.22198 29.119 7.31248C28.3614 6.24203 27.501 5.26256 26.485 4.42743C26.4182 4.36341 26.3547 4.29545 26.2839 4.23704C23.4719 1.91867 20.2488 0.665699 16.6044 0.514623C15.5862 0.472502 14.5702 0.517432 13.5655 0.711752C13.4818 0.718492 13.397 0.718492 13.315 0.733655C11.1696 1.13858 9.15396 1.88105 7.33263 3.09976C3.43217 5.70905 1.01889 9.31971 0.227007 13.948C-0.306533 17.0667 0.10345 20.0921 1.42494 22.9879C4.42175 29.5543 11.6161 33.8889 19.4086 32.0917C25.656 30.6506 29.6756 26.6811 31.5306 20.5454C31.9945 19.011 32.1197 17.4267 32.0405 15.8266ZM30.3596 20.2084C28.6618 25.6741 25.1444 29.4077 19.5563 30.768C13.329 32.2832 8.17786 30.2496 4.23417 25.2377C2.19043 22.6408 1.15761 19.6406 1.21827 16.3225C1.29409 12.1974 2.90425 8.71316 5.85725 5.86237C7.85774 3.93096 10.2368 2.65945 12.9623 2.05852C12.9977 2.05065 13.0303 2.03156 13.0645 2.01752C13.0802 2.03212 13.0965 2.04335 13.1134 2.05178C13.1285 2.03268 13.1448 2.0164 13.1622 2.00404C13.8328 1.91306 14.5006 1.79624 15.1779 1.75974C19.0301 1.55531 22.4312 2.71224 25.4157 5.13957C26.3777 5.9219 27.2331 6.816 27.952 7.81344C29.4335 9.87122 30.4495 12.1368 30.7606 14.6849C30.8729 15.6014 30.8875 16.5186 30.8606 17.4385H30.8589C30.8589 17.4385 30.8538 17.4413 30.851 17.4435C30.8538 17.4475 30.8566 17.4514 30.86 17.4548C30.7584 18.3848 30.6382 19.3126 30.3596 20.2084Z" fill="white"/>
<path d="M28.4877 16.3248C24.4042 12.2733 20.3184 8.22398 16.2388 4.16852C16.0815 4.01239 16.004 3.98544 15.8299 4.15954C12.8461 7.14118 9.8543 10.115 6.86367 13.0904C5.78368 14.1648 4.702 15.2381 3.62088 16.3119C3.49227 16.3933 3.38668 16.4781 3.57482 16.6084C3.7405 16.7662 3.90618 16.9235 4.07186 17.0813C4.14712 17.1633 4.219 17.2487 4.29763 17.3273C8.129 21.1384 11.9632 24.9479 15.7895 28.7652C15.9782 28.9534 16.0692 28.991 16.2809 28.7787C18.4724 26.5805 20.679 24.397 22.8788 22.2066C23.7859 21.3036 24.6856 20.3937 25.5887 19.4867C26.576 18.5179 27.5616 17.5474 28.5523 16.5826C28.6978 16.4405 28.5557 16.3927 28.4877 16.3248ZM16.6437 26.4823V23.9022C16.6426 22.9761 16.6426 22.0494 16.6415 21.1233V21.1025C16.6409 20.6234 16.6409 20.1449 16.6398 19.6664V19.6462C16.6392 19.1144 16.6387 18.5825 16.6375 18.0507V18.045C16.6375 17.8311 16.637 17.6176 16.6364 17.4037V17.3806C16.6364 17.2397 16.6426 17.1549 16.8465 17.1554C18.8419 17.1616 20.8373 17.1627 22.8322 17.1633H22.8491C23.8403 17.1633 24.8316 17.1633 25.8228 17.1639C25.8577 17.1639 25.8925 17.17 25.9902 17.1785C22.8895 20.3089 19.7995 23.3799 16.6437 26.4823ZM16.646 6.55822C16.7707 6.59585 16.8364 6.68739 16.9116 6.76096C17.9343 7.76289 18.9554 8.76707 19.9775 9.76956C20.0438 9.83471 20.1157 9.89368 20.1847 9.95546C20.2179 9.98803 20.251 10.02 20.2842 10.0521C20.4038 10.2026 20.538 10.339 20.6924 10.4542C20.711 10.5036 20.7447 10.5379 20.7947 10.5553C20.8199 10.612 20.8604 10.653 20.9177 10.6766C21.3759 11.1416 21.8297 11.6106 22.2925 12.0711C23.2916 13.064 24.2952 14.053 25.2966 15.0432C25.3185 15.0993 25.3573 15.1392 25.4134 15.1611C25.432 15.2139 25.4673 15.2499 25.5201 15.2684C25.542 15.3251 25.5808 15.3644 25.6375 15.3863C25.6566 15.4386 25.692 15.4739 25.7442 15.493C25.806 15.5711 25.8678 15.6486 25.9284 15.725C25.8689 15.7997 25.7981 15.7677 25.7386 15.7677C22.8098 15.7682 19.8803 15.7643 16.9515 15.7705C16.7201 15.771 16.6359 15.7385 16.637 15.4734C16.6415 13.9896 16.642 12.5052 16.6409 11.0214V11.0057C16.6448 10.8018 16.6493 10.6002 16.6595 10.3963C16.6684 10.2059 16.6538 10.0133 16.6404 9.82011V9.80494C16.6392 8.77437 16.6376 7.74436 16.637 6.71379C16.637 6.66886 16.642 6.62337 16.646 6.55822ZM15.3059 6.66212C15.3408 6.7267 15.3531 6.80084 15.3498 6.88957C15.3481 6.93282 15.3453 6.99123 15.3593 7.03616V7.66012C15.3172 7.72863 15.3492 7.82692 15.3492 7.90105C15.343 10.4463 15.3441 12.9916 15.3441 15.5368C15.3441 15.5784 15.3464 15.6194 15.3514 15.6587C15.334 15.7306 15.2835 15.7733 15.138 15.7727C12.2109 15.7637 9.28369 15.7665 6.35597 15.7665H6.14311C9.20057 12.6962 12.2142 9.68532 15.3059 6.66212ZM15.3604 26.2801C15.3604 26.3048 15.352 26.3289 15.3391 26.4036C12.2255 23.3546 9.17699 20.2915 6.09032 17.161H7.71677C10.1767 17.161 12.6371 17.1622 15.0976 17.1594C15.2627 17.1594 15.3672 17.1526 15.3666 17.3834C15.3576 20.3488 15.361 23.3142 15.3604 26.2801Z" fill="white"/>
<path d="M11.5802 26.0403C10.9725 26.0425 10.3643 26.0464 9.75658 26.033C7.90436 25.9908 6.57444 24.6469 6.55141 22.7975C6.54411 22.1898 6.54917 21.5821 6.54692 20.9739C6.54692 20.8829 6.56489 20.7863 6.48739 20.7105C6.12907 20.3612 5.77244 20.0113 5.37313 19.6204C5.42255 20.8037 5.34505 21.9258 5.42031 23.0474C5.577 25.3731 7.32645 27.0939 9.6538 27.1663C10.7096 27.1989 11.7672 27.1759 12.8241 27.177C12.8657 27.177 12.9191 27.1927 12.946 27.1242C12.6102 26.8069 12.2693 26.4896 11.9345 26.1655C11.8318 26.0655 11.7183 26.0397 11.5802 26.0403Z" fill="white"/>
<path d="M20.5155 6.96427C21.1052 6.95753 21.6944 6.95472 22.2835 6.96652C23.9673 6.99909 25.3612 8.26161 25.5443 9.93693C25.6173 10.6069 25.5578 11.2831 25.5679 11.956C25.569 12.0481 25.537 12.1497 25.6004 12.2289C25.9329 12.6389 26.3204 12.9938 26.7186 13.3521C26.704 12.116 26.8304 10.8911 26.6456 9.67633C26.3474 7.71179 24.8215 6.14543 22.9434 5.89775C21.6899 5.73208 20.4268 5.87304 19.1682 5.82025C19.4911 6.16228 19.7978 6.47791 20.0932 6.80309C20.2123 6.93394 20.3465 6.96652 20.5155 6.96427Z" fill="white"/>
<path d="M6.40034 12.3261C6.51322 12.2098 6.5486 12.0834 6.5458 11.9239C6.53625 11.391 6.53569 10.858 6.53962 10.325C6.55478 8.41325 7.94928 7.00134 9.86272 6.96596C10.4423 6.95585 11.0219 6.96764 11.6015 6.96708C11.6846 6.96708 11.8003 6.9873 11.8458 6.94293C12.2109 6.58068 12.563 6.20608 12.9112 5.84215C11.8087 5.84215 10.695 5.79498 9.58641 5.85226C7.39159 5.96627 5.65844 7.65787 5.43042 9.84594C5.31023 11.0023 5.40908 12.1626 5.42536 13.3555C5.74998 13.0118 6.07123 12.6653 6.40034 12.3261Z" fill="white"/>
<path d="M26.7119 21.5232C26.7214 20.9031 26.7141 20.2831 26.7141 19.5929C26.3581 19.9596 26.0233 20.25 25.7425 20.5948C25.5802 20.6925 25.5415 20.8397 25.5409 21.0228C25.5398 21.7804 25.6128 22.5436 25.51 23.2945C25.2977 24.8463 24.0375 25.965 22.4554 26.0302C21.7921 26.0577 21.1271 26.0358 20.4627 26.0369C20.3617 26.0375 20.26 26.0195 20.1752 26.1077C19.8354 26.4598 19.4911 26.808 19.1165 27.1905C20.3869 27.159 21.6191 27.2388 22.8496 27.1365C23.0164 27.1231 23.1832 27.0882 23.3467 27.0512C25.1826 26.6328 26.6344 24.9153 26.6563 23.1389C26.667 23.1131 26.6782 23.0884 26.6782 23.0592V23.012C26.754 22.5178 26.7046 22.0191 26.7119 21.5232Z" fill="white"/>
<path d="M146.876 24.3537V7.96344H150.621V10.6951H150.792C151.091 9.74901 151.603 9.01984 152.328 8.50765C153.061 7.98834 153.897 7.72868 154.836 7.72868C155.049 7.72868 155.288 7.73935 155.551 7.76069C155.821 7.77492 156.045 7.79982 156.223 7.83539V11.3887C156.06 11.3318 155.8 11.282 155.444 11.2394C155.096 11.1896 154.758 11.1647 154.431 11.1647C153.726 11.1647 153.093 11.3176 152.531 11.6235C151.976 11.9223 151.539 12.3384 151.219 12.872C150.898 13.4055 150.738 14.0209 150.738 14.718V24.3537H146.876Z" fill="white"/>
<path d="M136.921 24.6738C135.277 24.6738 133.858 24.3323 132.663 23.6494C131.475 22.9594 130.561 21.9848 129.921 20.7256C129.28 19.4594 128.96 17.969 128.96 16.2546C128.96 14.5686 129.28 13.0889 129.921 11.8156C130.568 10.5351 131.471 9.53915 132.631 8.82777C133.79 8.10927 135.153 7.75003 136.718 7.75003C137.728 7.75003 138.681 7.91365 139.578 8.24088C140.481 8.561 141.278 9.05897 141.968 9.73478C142.665 10.4106 143.213 11.2714 143.611 12.3171C144.01 13.3557 144.209 14.5935 144.209 16.0305V17.215H130.774V14.6113H140.506C140.499 13.8715 140.339 13.2134 140.026 12.6372C139.713 12.0539 139.275 11.595 138.713 11.2607C138.158 10.9263 137.511 10.7592 136.771 10.7592C135.982 10.7592 135.288 10.9512 134.69 11.3354C134.093 11.7124 133.627 12.2104 133.293 12.8293C132.965 13.4411 132.798 14.1133 132.791 14.8461V17.1189C132.791 18.0722 132.965 18.8903 133.314 19.5732C133.662 20.249 134.15 20.7683 134.776 21.1311C135.402 21.4868 136.135 21.6647 136.974 21.6647C137.536 21.6647 138.045 21.5864 138.5 21.4299C138.955 21.2663 139.35 21.028 139.684 20.715C140.019 20.402 140.271 20.0143 140.442 19.5519L144.049 19.9573C143.821 20.9106 143.387 21.7429 142.747 22.4543C142.114 23.1586 141.303 23.7063 140.314 24.0976C139.325 24.4817 138.194 24.6738 136.921 24.6738Z" fill="white"/>
<path d="M123.93 24.5884C123.282 24.5884 122.727 24.3608 122.265 23.9055C121.803 23.4502 121.575 22.8954 121.582 22.2409C121.575 21.6006 121.803 21.0529 122.265 20.5976C122.727 20.1423 123.282 19.9147 123.93 19.9147C124.556 19.9147 125.1 20.1423 125.562 20.5976C126.032 21.0529 126.27 21.6006 126.277 22.2409C126.27 22.6748 126.156 23.0696 125.936 23.4253C125.722 23.781 125.438 24.0656 125.082 24.279C124.734 24.4853 124.349 24.5884 123.93 24.5884Z" fill="white"/>
<path d="M107.703 14.75V24.3537H103.84V7.96344H107.532V10.7485H107.724C108.101 9.83082 108.702 9.10165 109.528 8.561C110.36 8.02035 111.388 7.75003 112.612 7.75003C113.743 7.75003 114.728 7.9919 115.567 8.47564C116.414 8.95938 117.068 9.66009 117.531 10.5778C118 11.4955 118.231 12.6088 118.224 13.9177V24.3537H114.361V14.5153C114.361 13.4197 114.077 12.5625 113.508 11.9436C112.946 11.3247 112.167 11.0153 111.171 11.0153C110.495 11.0153 109.894 11.1647 109.368 11.4634C108.848 11.7551 108.439 12.1784 108.14 12.7333C107.849 13.2881 107.703 13.9604 107.703 14.75Z" fill="white"/>
<path d="M89.993 14.75V24.3537H86.1302V7.96344H89.8222V10.7485H90.0143C90.3913 9.83082 90.9925 9.10165 91.8177 8.561C92.65 8.02035 93.6779 7.75003 94.9015 7.75003C96.0326 7.75003 97.0179 7.9919 97.8573 8.47564C98.7038 8.95938 99.3583 9.66009 99.8207 10.5778C100.29 11.4955 100.521 12.6088 100.514 13.9177V24.3537H96.6515V14.5153C96.6515 13.4197 96.3669 12.5625 95.7978 11.9436C95.2358 11.3247 94.4569 11.0153 93.461 11.0153C92.7851 11.0153 92.184 11.1647 91.6576 11.4634C91.1383 11.7551 90.7292 12.1784 90.4305 12.7333C90.1388 13.2881 89.993 13.9604 89.993 14.75Z" fill="white"/>
<path d="M74.193 24.6845C73.1544 24.6845 72.2189 24.4995 71.3866 24.1296C70.5614 23.7526 69.9069 23.1977 69.4232 22.465C68.9466 21.7322 68.7083 20.8288 68.7083 19.7546C68.7083 18.8298 68.879 18.0651 69.2205 17.4604C69.5619 16.8557 70.0279 16.372 70.6183 16.0092C71.2088 15.6464 71.8739 15.3725 72.6137 15.1875C73.3607 14.9955 74.1326 14.8567 74.9293 14.7714C75.8897 14.6718 76.6686 14.5829 77.2662 14.5046C77.8638 14.4192 78.2977 14.2912 78.568 14.1205C78.8455 13.9426 78.9842 13.6687 78.9842 13.2988V13.2348C78.9842 12.4309 78.7459 11.8085 78.2692 11.3674C77.7926 10.9263 77.1061 10.7058 76.2098 10.7058C75.2636 10.7058 74.5131 10.9121 73.9583 11.3247C73.4105 11.7373 73.0406 12.2246 72.8485 12.7866L69.2418 12.2744C69.5264 11.2785 69.9959 10.4462 70.6503 9.77746C71.3048 9.10165 72.1051 8.59657 73.0512 8.26222C73.9974 7.92076 75.0431 7.75003 76.1884 7.75003C76.9781 7.75003 77.7642 7.84251 78.5467 8.02747C79.3292 8.21242 80.0441 8.51832 80.6915 8.94515C81.3388 9.36486 81.8582 9.93753 82.2494 10.6631C82.6478 11.3887 82.847 12.2958 82.847 13.3842V24.3537H79.1336V22.1022H79.0055C78.7708 22.5574 78.44 22.9843 78.0131 23.3826C77.5934 23.7739 77.0634 24.0905 76.4232 24.3323C75.7901 24.5671 75.0467 24.6845 74.193 24.6845ZM75.1961 21.8461C75.9715 21.8461 76.6437 21.6931 77.2128 21.3872C77.7819 21.0742 78.2194 20.6616 78.5253 20.1494C78.8383 19.6372 78.9948 19.0788 78.9948 18.4741V16.5427C78.8739 16.6423 78.6676 16.7348 78.3759 16.8201C78.0914 16.9055 77.7713 16.9802 77.4156 17.0442C77.0599 17.1083 76.7078 17.1652 76.3592 17.215C76.0106 17.2648 75.7083 17.3074 75.4522 17.343C74.8759 17.4213 74.3602 17.5493 73.9049 17.7272C73.4496 17.905 73.0904 18.154 72.8272 18.4741C72.5639 18.7871 72.4323 19.1926 72.4323 19.6906C72.4323 20.402 72.692 20.9391 73.2113 21.3019C73.7306 21.6647 74.3922 21.8461 75.1961 21.8461Z" fill="white"/>
<path d="M66.1053 2.50003V24.3537H62.2425V2.50003H66.1053Z" fill="white"/>
<path d="M44.063 30.5V7.96344H47.8618V10.6738H48.0859C48.2851 10.2754 48.5661 9.85216 48.9289 9.40399C49.2917 8.94871 49.7825 8.561 50.4015 8.24088C51.0204 7.91365 51.81 7.75003 52.7704 7.75003C54.0366 7.75003 55.1784 8.0737 56.1957 8.72106C57.22 9.36131 58.031 10.311 58.6286 11.5701C59.2333 12.8222 59.5356 14.3588 59.5356 16.1799C59.5356 17.9797 59.2404 19.5092 58.6499 20.7683C58.0595 22.0275 57.2556 22.9878 56.2383 23.6494C55.2211 24.311 54.0686 24.6418 52.781 24.6418C51.842 24.6418 51.063 24.4853 50.4441 24.1723C49.8252 23.8593 49.3273 23.4822 48.9502 23.0412C48.5803 22.593 48.2922 22.1697 48.0859 21.7714H47.9258V30.5H44.063ZM47.8511 16.1586C47.8511 17.2185 48.0005 18.1469 48.2993 18.9436C48.6052 19.7404 49.0427 20.3628 49.6118 20.811C50.188 21.2521 50.8852 21.4726 51.7033 21.4726C52.5569 21.4726 53.2719 21.2449 53.8481 20.7897C54.4243 20.3273 54.8583 19.6977 55.1499 18.9009C55.4487 18.0971 55.5981 17.183 55.5981 16.1586C55.5981 15.1413 55.4523 14.2378 55.1606 13.4482C54.8689 12.6586 54.435 12.0397 53.8588 11.5915C53.2825 11.1433 52.564 10.9192 51.7033 10.9192C50.8781 10.9192 50.1774 11.1362 49.6011 11.5701C49.0249 12.0041 48.5874 12.6123 48.2886 13.3948C47.997 14.1774 47.8511 15.0986 47.8511 16.1586Z" fill="white"/>
</svg>
